<?xml version="1.0" encoding="UTF-8" standalone="no"?>
<!DOCTYPE svg PUBLIC "-//W3C//DTD SVG 1.1//EN"
 "http://www.w3.org/Graphics/SVG/1.1/DTD/svg11.dtd">
<!-- Generated by graphviz version 2.47.0 (20210316.0004)
 -->
<!-- Title: dependencies Pages: 1 -->
<svg width="679pt" height="211pt"
 viewBox="0.00 0.00 679.00 211.00" xmlns="http://www.w3.org/2000/svg" xmlns:xlink="http://www.w3.org/1999/xlink">
<g id="graph0" class="graph" transform="scale(1 1) rotate(0) translate(4 207)">
<title>dependencies</title>
<polygon fill="white" stroke="transparent" points="-4,4 -4,-207 675,-207 675,4 -4,4"/>
<text text-anchor="start" x="314.51" y="-42.4" font-family="sans-serif" font-weight="bold" font-size="14.00">Legend</text>
<polygon fill="#ffffb3" stroke="transparent" points="101.5,-10 101.5,-30 121.5,-30 121.5,-10 101.5,-10"/>
<text text-anchor="start" x="125.13" y="-15.4" font-family="sans-serif" font-size="14.00"> &#160;Declarations</text>
<polygon fill="#8dd3c7" stroke="transparent" points="214.5,-10 214.5,-30 234.5,-30 234.5,-10 214.5,-10"/>
<text text-anchor="start" x="238.23" y="-15.4" font-family="sans-serif" font-size="14.00"> &#160;Module</text>
<polygon fill="#80b1d3" stroke="transparent" points="300.5,-10 300.5,-30 320.5,-30 320.5,-10 300.5,-10"/>
<text text-anchor="start" x="324.28" y="-15.4" font-family="sans-serif" font-size="14.00"> &#160;Bootstrap</text>
<polygon fill="#fdb462" stroke="transparent" points="397.5,-10 397.5,-30 417.5,-30 417.5,-10 397.5,-10"/>
<text text-anchor="start" x="421.17" y="-15.4" font-family="sans-serif" font-size="14.00"> &#160;Providers</text>
<polygon fill="#fb8072" stroke="transparent" points="493.5,-10 493.5,-30 513.5,-30 513.5,-10 493.5,-10"/>
<text text-anchor="start" x="517.23" y="-15.4" font-family="sans-serif" font-size="14.00"> &#160;Exports</text>
<g id="clust1" class="cluster">
<title>cluster_ApiModule</title>
<polygon fill="none" stroke="black" stroke-dasharray="1,5" points="8,-70 8,-195 663,-195 663,-70 8,-70"/>
</g>
<g id="clust6" class="cluster">
<title>cluster_ApiModule_providers</title>
<polygon fill="none" stroke="black" points="16,-78 16,-130 655,-130 655,-78 16,-78"/>
</g>
<!-- ApiConfiguration -->
<g id="node1" class="node">
<title>ApiConfiguration</title>
<ellipse fill="#fdb462" stroke="black" cx="567" cy="-104" rx="79.9" ry="18"/>
<text text-anchor="middle" x="567" y="-99.8" font-family="Times,serif" font-size="14.00">ApiConfiguration</text>
</g>
<!-- ApiModule -->
<g id="node4" class="node">
<title>ApiModule</title>
<polygon fill="#8dd3c7" stroke="black" points="412.05,-187 409.05,-191 388.05,-191 385.05,-187 331.95,-187 331.95,-151 412.05,-151 412.05,-187"/>
<text text-anchor="middle" x="372" y="-164.8" font-family="Times,serif" font-size="14.00">ApiModule</text>
</g>
<!-- ApiConfiguration&#45;&gt;ApiModule -->
<g id="edge1" class="edge">
<title>ApiConfiguration&#45;&gt;ApiModule</title>
<path fill="none" stroke="black" d="M567,-122.11C567,-141.34 567,-169 567,-169 567,-169 422.4,-169 422.4,-169"/>
<polygon fill="black" stroke="black" points="422.4,-165.5 412.4,-169 422.4,-172.5 422.4,-165.5"/>
</g>
<!-- PingControllerService -->
<g id="node2" class="node">
<title>PingControllerService</title>
<ellipse fill="#fdb462" stroke="black" cx="372" cy="-104" rx="97.29" ry="18"/>
<text text-anchor="middle" x="372" y="-99.8" font-family="Times,serif" font-size="14.00">PingControllerService</text>
</g>
<!-- PingControllerService&#45;&gt;ApiModule -->
<g id="edge2" class="edge">
<title>PingControllerService&#45;&gt;ApiModule</title>
<path fill="none" stroke="black" d="M372,-122.11C372,-122.11 372,-140.99 372,-140.99"/>
<polygon fill="black" stroke="black" points="368.5,-140.99 372,-150.99 375.5,-140.99 368.5,-140.99"/>
</g>
<!-- PokemonControllerService -->
<g id="node3" class="node">
<title>PokemonControllerService</title>
<ellipse fill="#fdb462" stroke="black" cx="140" cy="-104" rx="116.33" ry="18"/>
<text text-anchor="middle" x="140" y="-99.8" font-family="Times,serif" font-size="14.00">PokemonControllerService</text>
</g>
<!-- PokemonControllerService&#45;&gt;ApiModule -->
<g id="edge3" class="edge">
<title>PokemonControllerService&#45;&gt;ApiModule</title>
<path fill="none" stroke="black" d="M140,-122.11C140,-141.34 140,-169 140,-169 140,-169 321.85,-169 321.85,-169"/>
<polygon fill="black" stroke="black" points="321.85,-172.5 331.85,-169 321.85,-165.5 321.85,-172.5"/>
</g>
</g>
</svg>
